%TF.GenerationSoftware,KiCad,Pcbnew,10.0.5-10.0.5~ubuntu24.04.1*%
%TF.CreationDate,2026-09-02T09:54:35-06:00*%
%TF.ProjectId,i2c_env_sensor,6932635f-656e-4765-9f73-656e736f722e,rev?*%
%TF.SameCoordinates,Original*%
%TF.FileFunction,Copper,L2,Bot*%
%TF.FilePolarity,Positive*%
%FSLAX46Y46*%
G04 Gerber Fmt 4.6, Leading zero omitted, Abs format (unit mm)*
G04 Created by KiCad (PCBNEW 10.0.5-10.0.5~ubuntu24.04.1) date 2026-09-02 09:54:35*
%MOMM*%
%LPD*%
G01*
G04 APERTURE LIST*
G04 Aperture macros list*
%AMRoundRect*
0 Rectangle with rounded corners*
0 $1 Rounding radius*
0 $2 $3 $4 $5 $6 $7 $8 $9 X,Y pos of 4 corners*
0 Add a 4 corners polygon primitive as box body*
4,1,4,$2,$3,$4,$5,$6,$7,$8,$9,$2,$3,0*
0 Add four circle primitives for the rounded corners*
1,1,$1+$1,$2,$3*
1,1,$1+$1,$4,$5*
1,1,$1+$1,$6,$7*
1,1,$1+$1,$8,$9*
0 Add four rect primitives between the rounded corners*
20,1,$1+$1,$2,$3,$4,$5,0*
20,1,$1+$1,$4,$5,$6,$7,0*
20,1,$1+$1,$6,$7,$8,$9,0*
20,1,$1+$1,$8,$9,$2,$3,0*%
G04 Aperture macros list end*
%TA.AperFunction,ComponentPad*%
%ADD10RoundRect,0.250000X-0.350000X-0.625000X0.350000X-0.625000X0.350000X0.625000X-0.350000X0.625000X0*%
%TD*%
%TA.AperFunction,ComponentPad*%
%ADD11O,1.200000X1.750000*%
%TD*%
%TA.AperFunction,ViaPad*%
%ADD12C,0.600000*%
%TD*%
%TA.AperFunction,Conductor*%
%ADD13C,0.250000*%
%TD*%
G04 APERTURE END LIST*
D10*
%TO.P,J1,1*%
%TO.N,GND*%
X97000000Y-93500000D03*
D11*
%TO.P,J1,2*%
%TO.N,3V3_IN*%
X99000000Y-93500000D03*
%TO.P,J1,3*%
%TO.N,SDA*%
X101000000Y-93500000D03*
%TO.P,J1,4*%
%TO.N,SCL*%
X103000000Y-93500000D03*
%TD*%
D12*
%TO.N,3V3*%
X101200000Y-79600000D03*
X105000000Y-81300000D03*
X100000000Y-79600000D03*
%TO.N,GND*%
X103200000Y-79000000D03*
X106000000Y-79100000D03*
X98500000Y-78800000D03*
X93000000Y-79100000D03*
X95650000Y-79000000D03*
X94100000Y-82500000D03*
X101600000Y-81450000D03*
X96700000Y-82500000D03*
X94800000Y-89000000D03*
X104300000Y-91000000D03*
X100200000Y-86800000D03*
%TO.N,SCL*%
X101200000Y-82200000D03*
X93900000Y-81700000D03*
%TD*%
%TO.N,3V3*%
D13*
X100000000Y-79600000D02*
X101200000Y-79600000D01*
X103600000Y-81300000D02*
X105000000Y-81300000D01*
X101200000Y-79600000D02*
X101900000Y-79600000D01*
X101900000Y-79600000D02*
X103600000Y-81300000D01*
%TO.N,SCL*%
X100700000Y-81700000D02*
X93900000Y-81700000D01*
X101200000Y-82200000D02*
X100700000Y-81700000D01*
%TD*%
%TA.AperFunction,Conductor*%
%TO.N,GND*%
G36*
X108459191Y-77018907D02*
G01*
X108495155Y-77068407D01*
X108500000Y-77099000D01*
X108500000Y-87121153D01*
X108481093Y-87179344D01*
X108431593Y-87215308D01*
X108370407Y-87215308D01*
X108320907Y-87179344D01*
X108306845Y-87151746D01*
X108296905Y-87121153D01*
X108251557Y-86981588D01*
X108155051Y-86792184D01*
X108155049Y-86792180D01*
X108030108Y-86620213D01*
X108030106Y-86620211D01*
X108030104Y-86620208D01*
X107879792Y-86469896D01*
X107879788Y-86469893D01*
X107879786Y-86469891D01*
X107707819Y-86344950D01*
X107707815Y-86344948D01*
X107518412Y-86248443D01*
X107316238Y-86182752D01*
X107106290Y-86149500D01*
X107106287Y-86149500D01*
X106893713Y-86149500D01*
X106893710Y-86149500D01*
X106683761Y-86182752D01*
X106481587Y-86248443D01*
X106292184Y-86344948D01*
X106292180Y-86344950D01*
X106120213Y-86469891D01*
X105969891Y-86620213D01*
X105844950Y-86792180D01*
X105844948Y-86792184D01*
X105748443Y-86981587D01*
X105682752Y-87183761D01*
X105649500Y-87393709D01*
X105649500Y-87606290D01*
X105682752Y-87816238D01*
X105748443Y-88018412D01*
X105844948Y-88207815D01*
X105844950Y-88207819D01*
X105969891Y-88379786D01*
X105969893Y-88379788D01*
X105969896Y-88379792D01*
X106120208Y-88530104D01*
X106120211Y-88530106D01*
X106120213Y-88530108D01*
X106292180Y-88655049D01*
X106292184Y-88655051D01*
X106481588Y-88751557D01*
X106683757Y-88817246D01*
X106683758Y-88817246D01*
X106683761Y-88817247D01*
X106893710Y-88850500D01*
X106893713Y-88850500D01*
X107106290Y-88850500D01*
X107316238Y-88817247D01*
X107316239Y-88817246D01*
X107316243Y-88817246D01*
X107518412Y-88751557D01*
X107707816Y-88655051D01*
X107879792Y-88530104D01*
X108030104Y-88379792D01*
X108155051Y-88207816D01*
X108251557Y-88018412D01*
X108306845Y-87848252D01*
X108342809Y-87798753D01*
X108401000Y-87779846D01*
X108459191Y-87798753D01*
X108495155Y-87848253D01*
X108500000Y-87878846D01*
X108500000Y-99401000D01*
X108481093Y-99459191D01*
X108431593Y-99495155D01*
X108401000Y-99500000D01*
X91599000Y-99500000D01*
X91540809Y-99481093D01*
X91504845Y-99431593D01*
X91500000Y-99401000D01*
X91500000Y-93153542D01*
X98274500Y-93153542D01*
X98274500Y-93846457D01*
X98302381Y-93986619D01*
X98302381Y-93986621D01*
X98357068Y-94118648D01*
X98357074Y-94118659D01*
X98404839Y-94190143D01*
X98436468Y-94237479D01*
X98537521Y-94338532D01*
X98608362Y-94385866D01*
X98656340Y-94417925D01*
X98656351Y-94417931D01*
X98705121Y-94438132D01*
X98788380Y-94472619D01*
X98928545Y-94500500D01*
X98928546Y-94500500D01*
X99071454Y-94500500D01*
X99071455Y-94500500D01*
X99211620Y-94472619D01*
X99343653Y-94417929D01*
X99462479Y-94338532D01*
X99563532Y-94237479D01*
X99642929Y-94118653D01*
X99697619Y-93986620D01*
X99725500Y-93846455D01*
X99725500Y-93153545D01*
X99725499Y-93153542D01*
X100274500Y-93153542D01*
X100274500Y-93846457D01*
X100302381Y-93986619D01*
X100302381Y-93986621D01*
X100357068Y-94118648D01*
X100357074Y-94118659D01*
X100404839Y-94190143D01*
X100436468Y-94237479D01*
X100537521Y-94338532D01*
X100608362Y-94385866D01*
X100656340Y-94417925D01*
X100656351Y-94417931D01*
X100705121Y-94438132D01*
X100788380Y-94472619D01*
X100928545Y-94500500D01*
X100928546Y-94500500D01*
X101071454Y-94500500D01*
X101071455Y-94500500D01*
X101211620Y-94472619D01*
X101343653Y-94417929D01*
X101462479Y-94338532D01*
X101563532Y-94237479D01*
X101642929Y-94118653D01*
X101697619Y-93986620D01*
X101725500Y-93846455D01*
X101725500Y-93153545D01*
X101725499Y-93153542D01*
X102274500Y-93153542D01*
X102274500Y-93846457D01*
X102302381Y-93986619D01*
X102302381Y-93986621D01*
X102357068Y-94118648D01*
X102357074Y-94118659D01*
X102404839Y-94190143D01*
X102436468Y-94237479D01*
X102537521Y-94338532D01*
X102608362Y-94385866D01*
X102656340Y-94417925D01*
X102656351Y-94417931D01*
X102705121Y-94438132D01*
X102788380Y-94472619D01*
X102928545Y-94500500D01*
X102928546Y-94500500D01*
X103071454Y-94500500D01*
X103071455Y-94500500D01*
X103211620Y-94472619D01*
X103343653Y-94417929D01*
X103462479Y-94338532D01*
X103563532Y-94237479D01*
X103642929Y-94118653D01*
X103697619Y-93986620D01*
X103725500Y-93846455D01*
X103725500Y-93153545D01*
X103697619Y-93013380D01*
X103642929Y-92881347D01*
X103642928Y-92881345D01*
X103642925Y-92881340D01*
X103610866Y-92833362D01*
X103563532Y-92762521D01*
X103462479Y-92661468D01*
X103415143Y-92629839D01*
X103343659Y-92582074D01*
X103343648Y-92582068D01*
X103211620Y-92527381D01*
X103071457Y-92499500D01*
X103071455Y-92499500D01*
X102928545Y-92499500D01*
X102928542Y-92499500D01*
X102788380Y-92527381D01*
X102788378Y-92527381D01*
X102656351Y-92582068D01*
X102656340Y-92582074D01*
X102537521Y-92661468D01*
X102537517Y-92661471D01*
X102436471Y-92762517D01*
X102436468Y-92762521D01*
X102357074Y-92881340D01*
X102357068Y-92881351D01*
X102302381Y-93013378D01*
X102302381Y-93013380D01*
X102274500Y-93153542D01*
X101725499Y-93153542D01*
X101697619Y-93013380D01*
X101642929Y-92881347D01*
X101642928Y-92881345D01*
X101642925Y-92881340D01*
X101610866Y-92833362D01*
X101563532Y-92762521D01*
X101462479Y-92661468D01*
X101415143Y-92629839D01*
X101343659Y-92582074D01*
X101343648Y-92582068D01*
X101211620Y-92527381D01*
X101071457Y-92499500D01*
X101071455Y-92499500D01*
X100928545Y-92499500D01*
X100928542Y-92499500D01*
X100788380Y-92527381D01*
X100788378Y-92527381D01*
X100656351Y-92582068D01*
X100656340Y-92582074D01*
X100537521Y-92661468D01*
X100537517Y-92661471D01*
X100436471Y-92762517D01*
X100436468Y-92762521D01*
X100357074Y-92881340D01*
X100357068Y-92881351D01*
X100302381Y-93013378D01*
X100302381Y-93013380D01*
X100274500Y-93153542D01*
X99725499Y-93153542D01*
X99697619Y-93013380D01*
X99642929Y-92881347D01*
X99642928Y-92881345D01*
X99642925Y-92881340D01*
X99610866Y-92833362D01*
X99563532Y-92762521D01*
X99462479Y-92661468D01*
X99415143Y-92629839D01*
X99343659Y-92582074D01*
X99343648Y-92582068D01*
X99211620Y-92527381D01*
X99071457Y-92499500D01*
X99071455Y-92499500D01*
X98928545Y-92499500D01*
X98928542Y-92499500D01*
X98788380Y-92527381D01*
X98788378Y-92527381D01*
X98656351Y-92582068D01*
X98656340Y-92582074D01*
X98537521Y-92661468D01*
X98537517Y-92661471D01*
X98436471Y-92762517D01*
X98436468Y-92762521D01*
X98357074Y-92881340D01*
X98357068Y-92881351D01*
X98302381Y-93013378D01*
X98302381Y-93013380D01*
X98274500Y-93153542D01*
X91500000Y-93153542D01*
X91500000Y-87878846D01*
X91518907Y-87820655D01*
X91568407Y-87784691D01*
X91629593Y-87784691D01*
X91679093Y-87820655D01*
X91693155Y-87848253D01*
X91748443Y-88018412D01*
X91844948Y-88207815D01*
X91844950Y-88207819D01*
X91969891Y-88379786D01*
X91969893Y-88379788D01*
X91969896Y-88379792D01*
X92120208Y-88530104D01*
X92120211Y-88530106D01*
X92120213Y-88530108D01*
X92292180Y-88655049D01*
X92292184Y-88655051D01*
X92481588Y-88751557D01*
X92683757Y-88817246D01*
X92683758Y-88817246D01*
X92683761Y-88817247D01*
X92893710Y-88850500D01*
X92893713Y-88850500D01*
X93106290Y-88850500D01*
X93316238Y-88817247D01*
X93316239Y-88817246D01*
X93316243Y-88817246D01*
X93518412Y-88751557D01*
X93707816Y-88655051D01*
X93879792Y-88530104D01*
X94030104Y-88379792D01*
X94155051Y-88207816D01*
X94251557Y-88018412D01*
X94317246Y-87816243D01*
X94320016Y-87798753D01*
X94350500Y-87606290D01*
X94350500Y-87393709D01*
X94317247Y-87183761D01*
X94306845Y-87151746D01*
X94251557Y-86981588D01*
X94155051Y-86792184D01*
X94155049Y-86792180D01*
X94030108Y-86620213D01*
X94030106Y-86620211D01*
X94030104Y-86620208D01*
X93879792Y-86469896D01*
X93879788Y-86469893D01*
X93879786Y-86469891D01*
X93707819Y-86344950D01*
X93707815Y-86344948D01*
X93518412Y-86248443D01*
X93316238Y-86182752D01*
X93106290Y-86149500D01*
X93106287Y-86149500D01*
X92893713Y-86149500D01*
X92893710Y-86149500D01*
X92683761Y-86182752D01*
X92481587Y-86248443D01*
X92292184Y-86344948D01*
X92292180Y-86344950D01*
X92120213Y-86469891D01*
X91969891Y-86620213D01*
X91844950Y-86792180D01*
X91844948Y-86792184D01*
X91748443Y-86981587D01*
X91693155Y-87151746D01*
X91657191Y-87201246D01*
X91599000Y-87220153D01*
X91540809Y-87201246D01*
X91504845Y-87151745D01*
X91500000Y-87121153D01*
X91500000Y-81643982D01*
X93474500Y-81643982D01*
X93474500Y-81756018D01*
X93480314Y-81777716D01*
X93503498Y-81864241D01*
X93559513Y-81961260D01*
X93559515Y-81961263D01*
X93638737Y-82040485D01*
X93638739Y-82040486D01*
X93735759Y-82096501D01*
X93735757Y-82096501D01*
X93735761Y-82096502D01*
X93735763Y-82096503D01*
X93843982Y-82125500D01*
X93843984Y-82125500D01*
X93956016Y-82125500D01*
X93956018Y-82125500D01*
X94064237Y-82096503D01*
X94064239Y-82096501D01*
X94064241Y-82096501D01*
X94093064Y-82079859D01*
X94161263Y-82040485D01*
X94222253Y-81979494D01*
X94276768Y-81951719D01*
X94292255Y-81950500D01*
X100555231Y-81950500D01*
X100613422Y-81969407D01*
X100625235Y-81979496D01*
X100745504Y-82099765D01*
X100773281Y-82154282D01*
X100774500Y-82169769D01*
X100774500Y-82256018D01*
X100800072Y-82351455D01*
X100803498Y-82364241D01*
X100859513Y-82461260D01*
X100859515Y-82461263D01*
X100938737Y-82540485D01*
X100938739Y-82540486D01*
X101035759Y-82596501D01*
X101035757Y-82596501D01*
X101035761Y-82596502D01*
X101035763Y-82596503D01*
X101143982Y-82625500D01*
X101143984Y-82625500D01*
X101256016Y-82625500D01*
X101256018Y-82625500D01*
X101364237Y-82596503D01*
X101364239Y-82596501D01*
X101364241Y-82596501D01*
X101393064Y-82579859D01*
X101461263Y-82540485D01*
X101540485Y-82461263D01*
X101596503Y-82364237D01*
X101625500Y-82256018D01*
X101625500Y-82143982D01*
X101596503Y-82035763D01*
X101596501Y-82035760D01*
X101596501Y-82035758D01*
X101540486Y-81938739D01*
X101540485Y-81938737D01*
X101461263Y-81859515D01*
X101461260Y-81859513D01*
X101364240Y-81803498D01*
X101364242Y-81803498D01*
X101322251Y-81792247D01*
X101256018Y-81774500D01*
X101169769Y-81774500D01*
X101111578Y-81755593D01*
X101099766Y-81745504D01*
X100841896Y-81487635D01*
X100749829Y-81449500D01*
X100749828Y-81449500D01*
X94292255Y-81449500D01*
X94234064Y-81430593D01*
X94222257Y-81420509D01*
X94161263Y-81359515D01*
X94161260Y-81359513D01*
X94064240Y-81303498D01*
X94064242Y-81303498D01*
X94022251Y-81292247D01*
X93956018Y-81274500D01*
X93843982Y-81274500D01*
X93777748Y-81292247D01*
X93735758Y-81303498D01*
X93638739Y-81359513D01*
X93559513Y-81438739D01*
X93503498Y-81535758D01*
X93503497Y-81535763D01*
X93474500Y-81643982D01*
X91500000Y-81643982D01*
X91500000Y-79543982D01*
X99574500Y-79543982D01*
X99574500Y-79656018D01*
X99600072Y-79751455D01*
X99603498Y-79764241D01*
X99659513Y-79861260D01*
X99659515Y-79861263D01*
X99738737Y-79940485D01*
X99738739Y-79940486D01*
X99835759Y-79996501D01*
X99835757Y-79996501D01*
X99835761Y-79996502D01*
X99835763Y-79996503D01*
X99943982Y-80025500D01*
X99943984Y-80025500D01*
X100056016Y-80025500D01*
X100056018Y-80025500D01*
X100164237Y-79996503D01*
X100164239Y-79996501D01*
X100164241Y-79996501D01*
X100193064Y-79979859D01*
X100261263Y-79940485D01*
X100322253Y-79879494D01*
X100376768Y-79851719D01*
X100392255Y-79850500D01*
X100807745Y-79850500D01*
X100865936Y-79869407D01*
X100877742Y-79879490D01*
X100938737Y-79940485D01*
X100938739Y-79940486D01*
X101035759Y-79996501D01*
X101035757Y-79996501D01*
X101035761Y-79996502D01*
X101035763Y-79996503D01*
X101143982Y-80025500D01*
X101143984Y-80025500D01*
X101256016Y-80025500D01*
X101256018Y-80025500D01*
X101364237Y-79996503D01*
X101364239Y-79996501D01*
X101364241Y-79996501D01*
X101393064Y-79979859D01*
X101461263Y-79940485D01*
X101522253Y-79879494D01*
X101576768Y-79851719D01*
X101592255Y-79850500D01*
X101755231Y-79850500D01*
X101813422Y-79869407D01*
X101825235Y-79879496D01*
X103387636Y-81441897D01*
X103387635Y-81441897D01*
X103458103Y-81512364D01*
X103550171Y-81550500D01*
X103550172Y-81550500D01*
X104607745Y-81550500D01*
X104665936Y-81569407D01*
X104677742Y-81579490D01*
X104738737Y-81640485D01*
X104738739Y-81640486D01*
X104835759Y-81696501D01*
X104835757Y-81696501D01*
X104835761Y-81696502D01*
X104835763Y-81696503D01*
X104943982Y-81725500D01*
X104943984Y-81725500D01*
X105056016Y-81725500D01*
X105056018Y-81725500D01*
X105164237Y-81696503D01*
X105164239Y-81696501D01*
X105164241Y-81696501D01*
X105193064Y-81679859D01*
X105261263Y-81640485D01*
X105340485Y-81561263D01*
X105396503Y-81464237D01*
X105425500Y-81356018D01*
X105425500Y-81243982D01*
X105396503Y-81135763D01*
X105396501Y-81135760D01*
X105396501Y-81135758D01*
X105340486Y-81038739D01*
X105340485Y-81038737D01*
X105261263Y-80959515D01*
X105261260Y-80959513D01*
X105164240Y-80903498D01*
X105164242Y-80903498D01*
X105122251Y-80892247D01*
X105056018Y-80874500D01*
X104943982Y-80874500D01*
X104877748Y-80892247D01*
X104835758Y-80903498D01*
X104738739Y-80959513D01*
X104738737Y-80959514D01*
X104738737Y-80959515D01*
X104677746Y-81020505D01*
X104623232Y-81048281D01*
X104607745Y-81049500D01*
X103744769Y-81049500D01*
X103686578Y-81030593D01*
X103674765Y-81020504D01*
X103528761Y-80874500D01*
X102041897Y-79387636D01*
X102041895Y-79387635D01*
X102041894Y-79387634D01*
X101949829Y-79349500D01*
X101949828Y-79349500D01*
X101592255Y-79349500D01*
X101534064Y-79330593D01*
X101522257Y-79320509D01*
X101461263Y-79259515D01*
X101461260Y-79259513D01*
X101364240Y-79203498D01*
X101364242Y-79203498D01*
X101322251Y-79192247D01*
X101256018Y-79174500D01*
X101143982Y-79174500D01*
X101077748Y-79192247D01*
X101035758Y-79203498D01*
X100938739Y-79259513D01*
X100938737Y-79259514D01*
X100938737Y-79259515D01*
X100877746Y-79320505D01*
X100823232Y-79348281D01*
X100807745Y-79349500D01*
X100392255Y-79349500D01*
X100334064Y-79330593D01*
X100322257Y-79320509D01*
X100261263Y-79259515D01*
X100261260Y-79259513D01*
X100164240Y-79203498D01*
X100164242Y-79203498D01*
X100122251Y-79192247D01*
X100056018Y-79174500D01*
X99943982Y-79174500D01*
X99877748Y-79192247D01*
X99835758Y-79203498D01*
X99738739Y-79259513D01*
X99659513Y-79338739D01*
X99603498Y-79435758D01*
X99603497Y-79435763D01*
X99574500Y-79543982D01*
X91500000Y-79543982D01*
X91500000Y-77099000D01*
X91518907Y-77040809D01*
X91568407Y-77004845D01*
X91599000Y-77000000D01*
X108401000Y-77000000D01*
X108459191Y-77018907D01*
G37*
%TD.AperFunction*%
%TD*%
M02*
