%TF.GenerationSoftware,KiCad,Pcbnew,10.0.5-10.0.5~ubuntu24.04.1*%
%TF.ProjectId,i2c_env_sensor,6932635f-656e-4765-9f73-656e736f722e,rev?*%
%TF.SameCoordinates,Original*%
%TF.FileFunction,Copper,L2,Bot*%
%TF.FilePolarity,Positive*%
%FSLAX46Y46*%
G04 Gerber Fmt 4.6, Leading zero omitted, Abs format (unit mm)*
G04 Created by KiCad (PCBNEW 10.0.5-10.0.5~ubuntu24.04.1)*
%MOMM*%
%LPD*%
G01*
G04 APERTURE LIST*
G04 Aperture macros list*
%AMRoundRect*
0 Rectangle with rounded corners*
0 $1 Rounding radius*
0 $2 $3 $4 $5 $6 $7 $8 $9 X,Y pos of 4 corners*
0 Add a 4 corners polygon primitive as box body*
4,1,4,$2,$3,$4,$5,$6,$7,$8,$9,$2,$3,0*
0 Add four circle primitives for the rounded corners*
1,1,$1+$1,$2,$3*
1,1,$1+$1,$4,$5*
1,1,$1+$1,$6,$7*
1,1,$1+$1,$8,$9*
0 Add four rect primitives between the rounded corners*
20,1,$1+$1,$2,$3,$4,$5,0*
20,1,$1+$1,$4,$5,$6,$7,0*
20,1,$1+$1,$6,$7,$8,$9,0*
20,1,$1+$1,$8,$9,$2,$3,0*%
G04 Aperture macros list end*
%TA.AperFunction,ComponentPad*%
%ADD10RoundRect,0.250000X-0.350000X-0.625000X0.350000X-0.625000X0.350000X0.625000X-0.350000X0.625000X0*%
%TD*%
%TA.AperFunction,ComponentPad*%
%ADD11O,1.200000X1.750000*%
%TD*%
%TA.AperFunction,ViaPad*%
%ADD12C,0.600000*%
%TD*%
%TA.AperFunction,Conductor*%
%ADD13C,0.250000*%
%TD*%
%TA.AperFunction,Conductor*%
%ADD14C,0.150000*%
%TD*%
G04 APERTURE END LIST*
D10*
%TO.P,J1,1*%
%TO.N,GND*%
X97000000Y-93500000D03*
D11*
%TO.P,J1,2*%
%TO.N,3V3_IN*%
X99000000Y-93500000D03*
%TO.P,J1,3*%
%TO.N,SDA*%
X101000000Y-93500000D03*
%TO.P,J1,4*%
%TO.N,SCL*%
X103000000Y-93500000D03*
%TD*%
D12*
%TO.N,3V3*%
X102700000Y-76600000D03*
X99000000Y-76500000D03*
X101300000Y-78800000D03*
%TO.N,GND*%
X100200000Y-86800000D03*
X106000000Y-79100000D03*
X94100000Y-82500000D03*
X94800000Y-89000000D03*
X103200000Y-79000000D03*
X98500000Y-78800000D03*
X95650000Y-79000000D03*
X96700000Y-82500000D03*
X101600000Y-81450000D03*
X93000000Y-79100000D03*
X104300000Y-91000000D03*
%TO.N,SDA*%
X95750000Y-82350000D03*
X99025000Y-79450000D03*
%TO.N,SCL*%
X99275000Y-83300000D03*
X103100000Y-84700000D03*
X103100000Y-83300000D03*
%TD*%
%TO.N,3V3*%
D13*
X100300000Y-76600000D02*
X102700000Y-76600000D01*
X99700000Y-77200000D02*
X100300000Y-76600000D01*
X101300000Y-78800000D02*
X99700000Y-77200000D01*
X99700000Y-77200000D02*
X99000000Y-76500000D01*
%TO.N,SDA*%
D14*
X99025000Y-79450000D02*
X98650000Y-79450000D01*
X98650000Y-79450000D02*
X95750000Y-82350000D01*
%TO.N,SCL*%
D13*
X103100000Y-83300000D02*
X103100000Y-84700000D01*
X103100000Y-83300000D02*
X99275000Y-83300000D01*
%TD*%
%TA.AperFunction,Conductor*%
%TO.N,GND*%
G36*
X99162922Y-77018907D02*
G01*
X99174735Y-77028996D01*
X99487636Y-77341897D01*
X100845504Y-78699764D01*
X100873281Y-78754281D01*
X100874500Y-78769768D01*
X100874500Y-78856018D01*
X100900072Y-78951455D01*
X100903498Y-78964241D01*
X100955031Y-79053497D01*
X100959515Y-79061263D01*
X101038737Y-79140485D01*
X101038739Y-79140486D01*
X101135759Y-79196501D01*
X101135757Y-79196501D01*
X101135761Y-79196502D01*
X101135763Y-79196503D01*
X101243982Y-79225500D01*
X101243984Y-79225500D01*
X101356016Y-79225500D01*
X101356018Y-79225500D01*
X101464237Y-79196503D01*
X101464239Y-79196501D01*
X101464241Y-79196501D01*
X101493064Y-79179859D01*
X101561263Y-79140485D01*
X101640485Y-79061263D01*
X101696503Y-78964237D01*
X101725500Y-78856018D01*
X101725500Y-78743982D01*
X101696503Y-78635763D01*
X101696501Y-78635760D01*
X101696501Y-78635758D01*
X101640486Y-78538739D01*
X101640485Y-78538737D01*
X101561263Y-78459515D01*
X101561260Y-78459513D01*
X101464240Y-78403498D01*
X101464242Y-78403498D01*
X101422251Y-78392247D01*
X101356018Y-78374500D01*
X101269768Y-78374500D01*
X101211577Y-78355593D01*
X101199764Y-78345504D01*
X100124263Y-77270003D01*
X100096486Y-77215486D01*
X100106057Y-77155054D01*
X100124260Y-77129999D01*
X100195117Y-77059142D01*
X100225265Y-77028996D01*
X100279782Y-77001219D01*
X100295268Y-77000000D01*
X102535780Y-77000000D01*
X102561401Y-77003372D01*
X102643982Y-77025500D01*
X102643984Y-77025500D01*
X102756016Y-77025500D01*
X102756018Y-77025500D01*
X102838598Y-77003372D01*
X102864220Y-77000000D01*
X108401000Y-77000000D01*
X108459191Y-77018907D01*
X108495155Y-77068407D01*
X108500000Y-77099000D01*
X108500000Y-87121153D01*
X108481093Y-87179344D01*
X108431593Y-87215308D01*
X108370407Y-87215308D01*
X108320907Y-87179344D01*
X108306845Y-87151746D01*
X108296905Y-87121153D01*
X108251557Y-86981588D01*
X108155051Y-86792184D01*
X108155049Y-86792180D01*
X108030108Y-86620213D01*
X108030106Y-86620211D01*
X108030104Y-86620208D01*
X107879792Y-86469896D01*
X107879788Y-86469893D01*
X107879786Y-86469891D01*
X107707819Y-86344950D01*
X107707815Y-86344948D01*
X107518412Y-86248443D01*
X107316238Y-86182752D01*
X107106290Y-86149500D01*
X107106287Y-86149500D01*
X106893713Y-86149500D01*
X106893710Y-86149500D01*
X106683761Y-86182752D01*
X106481587Y-86248443D01*
X106292184Y-86344948D01*
X106292180Y-86344950D01*
X106120213Y-86469891D01*
X105969891Y-86620213D01*
X105844950Y-86792180D01*
X105844948Y-86792184D01*
X105748443Y-86981587D01*
X105682752Y-87183761D01*
X105649500Y-87393709D01*
X105649500Y-87606290D01*
X105682752Y-87816238D01*
X105748443Y-88018412D01*
X105844948Y-88207815D01*
X105844950Y-88207819D01*
X105969891Y-88379786D01*
X105969893Y-88379788D01*
X105969896Y-88379792D01*
X106120208Y-88530104D01*
X106120211Y-88530106D01*
X106120213Y-88530108D01*
X106292180Y-88655049D01*
X106292184Y-88655051D01*
X106481588Y-88751557D01*
X106683757Y-88817246D01*
X106683758Y-88817246D01*
X106683761Y-88817247D01*
X106893710Y-88850500D01*
X106893713Y-88850500D01*
X107106290Y-88850500D01*
X107316238Y-88817247D01*
X107316239Y-88817246D01*
X107316243Y-88817246D01*
X107518412Y-88751557D01*
X107707816Y-88655051D01*
X107879792Y-88530104D01*
X108030104Y-88379792D01*
X108155051Y-88207816D01*
X108251557Y-88018412D01*
X108306845Y-87848252D01*
X108342809Y-87798753D01*
X108401000Y-87779846D01*
X108459191Y-87798753D01*
X108495155Y-87848253D01*
X108500000Y-87878846D01*
X108500000Y-99401000D01*
X108481093Y-99459191D01*
X108431593Y-99495155D01*
X108401000Y-99500000D01*
X91599000Y-99500000D01*
X91540809Y-99481093D01*
X91504845Y-99431593D01*
X91500000Y-99401000D01*
X91500000Y-93153542D01*
X98274500Y-93153542D01*
X98274500Y-93846457D01*
X98302381Y-93986619D01*
X98302381Y-93986621D01*
X98357068Y-94118648D01*
X98357074Y-94118659D01*
X98404839Y-94190143D01*
X98436468Y-94237479D01*
X98537521Y-94338532D01*
X98608362Y-94385866D01*
X98656340Y-94417925D01*
X98656351Y-94417931D01*
X98705121Y-94438132D01*
X98788380Y-94472619D01*
X98928545Y-94500500D01*
X98928546Y-94500500D01*
X99071454Y-94500500D01*
X99071455Y-94500500D01*
X99211620Y-94472619D01*
X99343653Y-94417929D01*
X99462479Y-94338532D01*
X99563532Y-94237479D01*
X99642929Y-94118653D01*
X99697619Y-93986620D01*
X99725500Y-93846455D01*
X99725500Y-93153545D01*
X99725499Y-93153542D01*
X100274500Y-93153542D01*
X100274500Y-93846457D01*
X100302381Y-93986619D01*
X100302381Y-93986621D01*
X100357068Y-94118648D01*
X100357074Y-94118659D01*
X100404839Y-94190143D01*
X100436468Y-94237479D01*
X100537521Y-94338532D01*
X100608362Y-94385866D01*
X100656340Y-94417925D01*
X100656351Y-94417931D01*
X100705121Y-94438132D01*
X100788380Y-94472619D01*
X100928545Y-94500500D01*
X100928546Y-94500500D01*
X101071454Y-94500500D01*
X101071455Y-94500500D01*
X101211620Y-94472619D01*
X101343653Y-94417929D01*
X101462479Y-94338532D01*
X101563532Y-94237479D01*
X101642929Y-94118653D01*
X101697619Y-93986620D01*
X101725500Y-93846455D01*
X101725500Y-93153545D01*
X101725499Y-93153542D01*
X102274500Y-93153542D01*
X102274500Y-93846457D01*
X102302381Y-93986619D01*
X102302381Y-93986621D01*
X102357068Y-94118648D01*
X102357074Y-94118659D01*
X102404839Y-94190143D01*
X102436468Y-94237479D01*
X102537521Y-94338532D01*
X102608362Y-94385866D01*
X102656340Y-94417925D01*
X102656351Y-94417931D01*
X102705121Y-94438132D01*
X102788380Y-94472619D01*
X102928545Y-94500500D01*
X102928546Y-94500500D01*
X103071454Y-94500500D01*
X103071455Y-94500500D01*
X103211620Y-94472619D01*
X103343653Y-94417929D01*
X103462479Y-94338532D01*
X103563532Y-94237479D01*
X103642929Y-94118653D01*
X103697619Y-93986620D01*
X103725500Y-93846455D01*
X103725500Y-93153545D01*
X103697619Y-93013380D01*
X103642929Y-92881347D01*
X103642928Y-92881345D01*
X103642925Y-92881340D01*
X103610866Y-92833362D01*
X103563532Y-92762521D01*
X103462479Y-92661468D01*
X103415143Y-92629839D01*
X103343659Y-92582074D01*
X103343648Y-92582068D01*
X103211620Y-92527381D01*
X103071457Y-92499500D01*
X103071455Y-92499500D01*
X102928545Y-92499500D01*
X102928542Y-92499500D01*
X102788380Y-92527381D01*
X102788378Y-92527381D01*
X102656351Y-92582068D01*
X102656340Y-92582074D01*
X102537521Y-92661468D01*
X102537517Y-92661471D01*
X102436471Y-92762517D01*
X102436468Y-92762521D01*
X102357074Y-92881340D01*
X102357068Y-92881351D01*
X102302381Y-93013378D01*
X102302381Y-93013380D01*
X102274500Y-93153542D01*
X101725499Y-93153542D01*
X101697619Y-93013380D01*
X101642929Y-92881347D01*
X101642928Y-92881345D01*
X101642925Y-92881340D01*
X101610866Y-92833362D01*
X101563532Y-92762521D01*
X101462479Y-92661468D01*
X101415143Y-92629839D01*
X101343659Y-92582074D01*
X101343648Y-92582068D01*
X101211620Y-92527381D01*
X101071457Y-92499500D01*
X101071455Y-92499500D01*
X100928545Y-92499500D01*
X100928542Y-92499500D01*
X100788380Y-92527381D01*
X100788378Y-92527381D01*
X100656351Y-92582068D01*
X100656340Y-92582074D01*
X100537521Y-92661468D01*
X100537517Y-92661471D01*
X100436471Y-92762517D01*
X100436468Y-92762521D01*
X100357074Y-92881340D01*
X100357068Y-92881351D01*
X100302381Y-93013378D01*
X100302381Y-93013380D01*
X100274500Y-93153542D01*
X99725499Y-93153542D01*
X99697619Y-93013380D01*
X99642929Y-92881347D01*
X99642928Y-92881345D01*
X99642925Y-92881340D01*
X99610866Y-92833362D01*
X99563532Y-92762521D01*
X99462479Y-92661468D01*
X99415143Y-92629839D01*
X99343659Y-92582074D01*
X99343648Y-92582068D01*
X99211620Y-92527381D01*
X99071457Y-92499500D01*
X99071455Y-92499500D01*
X98928545Y-92499500D01*
X98928542Y-92499500D01*
X98788380Y-92527381D01*
X98788378Y-92527381D01*
X98656351Y-92582068D01*
X98656340Y-92582074D01*
X98537521Y-92661468D01*
X98537517Y-92661471D01*
X98436471Y-92762517D01*
X98436468Y-92762521D01*
X98357074Y-92881340D01*
X98357068Y-92881351D01*
X98302381Y-93013378D01*
X98302381Y-93013380D01*
X98274500Y-93153542D01*
X91500000Y-93153542D01*
X91500000Y-87878846D01*
X91518907Y-87820655D01*
X91568407Y-87784691D01*
X91629593Y-87784691D01*
X91679093Y-87820655D01*
X91693155Y-87848253D01*
X91748443Y-88018412D01*
X91844948Y-88207815D01*
X91844950Y-88207819D01*
X91969891Y-88379786D01*
X91969893Y-88379788D01*
X91969896Y-88379792D01*
X92120208Y-88530104D01*
X92120211Y-88530106D01*
X92120213Y-88530108D01*
X92292180Y-88655049D01*
X92292184Y-88655051D01*
X92481588Y-88751557D01*
X92683757Y-88817246D01*
X92683758Y-88817246D01*
X92683761Y-88817247D01*
X92893710Y-88850500D01*
X92893713Y-88850500D01*
X93106290Y-88850500D01*
X93316238Y-88817247D01*
X93316239Y-88817246D01*
X93316243Y-88817246D01*
X93518412Y-88751557D01*
X93707816Y-88655051D01*
X93879792Y-88530104D01*
X94030104Y-88379792D01*
X94155051Y-88207816D01*
X94251557Y-88018412D01*
X94317246Y-87816243D01*
X94320016Y-87798753D01*
X94350500Y-87606290D01*
X94350500Y-87393709D01*
X94317247Y-87183761D01*
X94306845Y-87151746D01*
X94251557Y-86981588D01*
X94155051Y-86792184D01*
X94155049Y-86792180D01*
X94030108Y-86620213D01*
X94030106Y-86620211D01*
X94030104Y-86620208D01*
X93879792Y-86469896D01*
X93879788Y-86469893D01*
X93879786Y-86469891D01*
X93707819Y-86344950D01*
X93707815Y-86344948D01*
X93518412Y-86248443D01*
X93316238Y-86182752D01*
X93106290Y-86149500D01*
X93106287Y-86149500D01*
X92893713Y-86149500D01*
X92893710Y-86149500D01*
X92683761Y-86182752D01*
X92481587Y-86248443D01*
X92292184Y-86344948D01*
X92292180Y-86344950D01*
X92120213Y-86469891D01*
X91969891Y-86620213D01*
X91844950Y-86792180D01*
X91844948Y-86792184D01*
X91748443Y-86981587D01*
X91693155Y-87151746D01*
X91657191Y-87201246D01*
X91599000Y-87220153D01*
X91540809Y-87201246D01*
X91504845Y-87151745D01*
X91500000Y-87121153D01*
X91500000Y-83243982D01*
X98849500Y-83243982D01*
X98849500Y-83356018D01*
X98875072Y-83451455D01*
X98878498Y-83464241D01*
X98934513Y-83561260D01*
X98934515Y-83561263D01*
X99013737Y-83640485D01*
X99013739Y-83640486D01*
X99110759Y-83696501D01*
X99110757Y-83696501D01*
X99110761Y-83696502D01*
X99110763Y-83696503D01*
X99218982Y-83725500D01*
X99218984Y-83725500D01*
X99331016Y-83725500D01*
X99331018Y-83725500D01*
X99439237Y-83696503D01*
X99439239Y-83696501D01*
X99439241Y-83696501D01*
X99473419Y-83676768D01*
X99536263Y-83640485D01*
X99597253Y-83579494D01*
X99651768Y-83551719D01*
X99667255Y-83550500D01*
X102707745Y-83550500D01*
X102765936Y-83569407D01*
X102777742Y-83579490D01*
X102820505Y-83622253D01*
X102848281Y-83676768D01*
X102849500Y-83692255D01*
X102849500Y-84307745D01*
X102830593Y-84365936D01*
X102820509Y-84377742D01*
X102759515Y-84438737D01*
X102759513Y-84438739D01*
X102703498Y-84535758D01*
X102703497Y-84535763D01*
X102674500Y-84643982D01*
X102674500Y-84756018D01*
X102700072Y-84851455D01*
X102703498Y-84864241D01*
X102759513Y-84961260D01*
X102759515Y-84961263D01*
X102838737Y-85040485D01*
X102838739Y-85040486D01*
X102935759Y-85096501D01*
X102935757Y-85096501D01*
X102935761Y-85096502D01*
X102935763Y-85096503D01*
X103043982Y-85125500D01*
X103043984Y-85125500D01*
X103156016Y-85125500D01*
X103156018Y-85125500D01*
X103264237Y-85096503D01*
X103264239Y-85096501D01*
X103264241Y-85096501D01*
X103293064Y-85079859D01*
X103361263Y-85040485D01*
X103440485Y-84961263D01*
X103496503Y-84864237D01*
X103525500Y-84756018D01*
X103525500Y-84643982D01*
X103496503Y-84535763D01*
X103496501Y-84535760D01*
X103496501Y-84535758D01*
X103440486Y-84438739D01*
X103440485Y-84438737D01*
X103379494Y-84377746D01*
X103351719Y-84323232D01*
X103350500Y-84307745D01*
X103350500Y-83692255D01*
X103369407Y-83634064D01*
X103379490Y-83622257D01*
X103440485Y-83561263D01*
X103496503Y-83464237D01*
X103525500Y-83356018D01*
X103525500Y-83243982D01*
X103496503Y-83135763D01*
X103496501Y-83135760D01*
X103496501Y-83135758D01*
X103440486Y-83038739D01*
X103440485Y-83038737D01*
X103361263Y-82959515D01*
X103361260Y-82959513D01*
X103264240Y-82903498D01*
X103264242Y-82903498D01*
X103222251Y-82892247D01*
X103156018Y-82874500D01*
X103043982Y-82874500D01*
X102977748Y-82892247D01*
X102935758Y-82903498D01*
X102838739Y-82959513D01*
X102838737Y-82959514D01*
X102838737Y-82959515D01*
X102777746Y-83020505D01*
X102723232Y-83048281D01*
X102707745Y-83049500D01*
X99667255Y-83049500D01*
X99609064Y-83030593D01*
X99597257Y-83020509D01*
X99536263Y-82959515D01*
X99536260Y-82959513D01*
X99439240Y-82903498D01*
X99439242Y-82903498D01*
X99397251Y-82892247D01*
X99331018Y-82874500D01*
X99218982Y-82874500D01*
X99152748Y-82892247D01*
X99110758Y-82903498D01*
X99013739Y-82959513D01*
X98934513Y-83038739D01*
X98878498Y-83135758D01*
X98878497Y-83135763D01*
X98849500Y-83243982D01*
X91500000Y-83243982D01*
X91500000Y-82293982D01*
X95324500Y-82293982D01*
X95324500Y-82406018D01*
X95350072Y-82501455D01*
X95353498Y-82514241D01*
X95409513Y-82611260D01*
X95409515Y-82611263D01*
X95488737Y-82690485D01*
X95488739Y-82690486D01*
X95585759Y-82746501D01*
X95585757Y-82746501D01*
X95585761Y-82746502D01*
X95585763Y-82746503D01*
X95693982Y-82775500D01*
X95693984Y-82775500D01*
X95806016Y-82775500D01*
X95806018Y-82775500D01*
X95914237Y-82746503D01*
X95914239Y-82746501D01*
X95914241Y-82746501D01*
X95943064Y-82729859D01*
X96011263Y-82690485D01*
X96090485Y-82611263D01*
X96146503Y-82514237D01*
X96175500Y-82406018D01*
X96175500Y-82293982D01*
X96172134Y-82281420D01*
X96175335Y-82220320D01*
X96197754Y-82185794D01*
X98608397Y-79775152D01*
X98662914Y-79747375D01*
X98723346Y-79756946D01*
X98748401Y-79775149D01*
X98763737Y-79790485D01*
X98763739Y-79790486D01*
X98860759Y-79846501D01*
X98860757Y-79846501D01*
X98860761Y-79846502D01*
X98860763Y-79846503D01*
X98968982Y-79875500D01*
X98968984Y-79875500D01*
X99081016Y-79875500D01*
X99081018Y-79875500D01*
X99189237Y-79846503D01*
X99189239Y-79846501D01*
X99189241Y-79846501D01*
X99218064Y-79829859D01*
X99286263Y-79790485D01*
X99365485Y-79711263D01*
X99421503Y-79614237D01*
X99450500Y-79506018D01*
X99450500Y-79393982D01*
X99421503Y-79285763D01*
X99421501Y-79285760D01*
X99421501Y-79285758D01*
X99369969Y-79196503D01*
X99365485Y-79188737D01*
X99286263Y-79109515D01*
X99286260Y-79109513D01*
X99189240Y-79053498D01*
X99189242Y-79053498D01*
X99147251Y-79042247D01*
X99081018Y-79024500D01*
X98968982Y-79024500D01*
X98902748Y-79042247D01*
X98860758Y-79053498D01*
X98763739Y-79109513D01*
X98684514Y-79188738D01*
X98676963Y-79201818D01*
X98631493Y-79242759D01*
X98610539Y-79249416D01*
X98610117Y-79249499D01*
X98536428Y-79280022D01*
X95914205Y-81902243D01*
X95859688Y-81930020D01*
X95818580Y-81927866D01*
X95806018Y-81924500D01*
X95693982Y-81924500D01*
X95627748Y-81942247D01*
X95585758Y-81953498D01*
X95488739Y-82009513D01*
X95409513Y-82088739D01*
X95353498Y-82185758D01*
X95337286Y-82246263D01*
X95324500Y-82293982D01*
X91500000Y-82293982D01*
X91500000Y-77099000D01*
X91518907Y-77040809D01*
X91568407Y-77004845D01*
X91599000Y-77000000D01*
X99104731Y-77000000D01*
X99162922Y-77018907D01*
G37*
%TD.AperFunction*%
%TD*%
M02*
