%TF.GenerationSoftware,KiCad,Pcbnew,10.0.5-10.0.5~ubuntu24.04.1*%
%TF.CreationDate,2026-09-03T01:58:04-06:00*%
%TF.ProjectId,i2c_env_sensor,6932635f-656e-4765-9f73-656e736f722e,rev?*%
%TF.SameCoordinates,Original*%
%TF.FileFunction,Copper,L1,Top*%
%TF.FilePolarity,Positive*%
%FSLAX46Y46*%
G04 Gerber Fmt 4.6, Leading zero omitted, Abs format (unit mm)*
G04 Created by KiCad (PCBNEW 10.0.5-10.0.5~ubuntu24.04.1) date 2026-09-03 01:58:04*
%MOMM*%
%LPD*%
G01*
G04 APERTURE LIST*
G04 Aperture macros list*
%AMRoundRect*
0 Rectangle with rounded corners*
0 $1 Rounding radius*
0 $2 $3 $4 $5 $6 $7 $8 $9 X,Y pos of 4 corners*
0 Add a 4 corners polygon primitive as box body*
4,1,4,$2,$3,$4,$5,$6,$7,$8,$9,$2,$3,0*
0 Add four circle primitives for the rounded corners*
1,1,$1+$1,$2,$3*
1,1,$1+$1,$4,$5*
1,1,$1+$1,$6,$7*
1,1,$1+$1,$8,$9*
0 Add four rect primitives between the rounded corners*
20,1,$1+$1,$2,$3,$4,$5,0*
20,1,$1+$1,$4,$5,$6,$7,0*
20,1,$1+$1,$6,$7,$8,$9,0*
20,1,$1+$1,$8,$9,$2,$3,0*%
G04 Aperture macros list end*
%TA.AperFunction,SMDPad,CuDef*%
%ADD10R,0.500000X0.300000*%
%TD*%
%TA.AperFunction,SMDPad,CuDef*%
%ADD11RoundRect,0.087500X-0.250000X-0.087500X0.250000X-0.087500X0.250000X0.087500X-0.250000X0.087500X0*%
%TD*%
%TA.AperFunction,SMDPad,CuDef*%
%ADD12RoundRect,0.135000X0.185000X-0.135000X0.185000X0.135000X-0.185000X0.135000X-0.185000X-0.135000X0*%
%TD*%
%TA.AperFunction,SMDPad,CuDef*%
%ADD13RoundRect,0.140000X0.170000X-0.140000X0.170000X0.140000X-0.170000X0.140000X-0.170000X-0.140000X0*%
%TD*%
%TA.AperFunction,SMDPad,CuDef*%
%ADD14R,0.500000X0.250000*%
%TD*%
%TA.AperFunction,SMDPad,CuDef*%
%ADD15R,0.650000X1.350000*%
%TD*%
%TA.AperFunction,SMDPad,CuDef*%
%ADD16C,1.000000*%
%TD*%
%TA.AperFunction,SMDPad,CuDef*%
%ADD17RoundRect,0.140000X-0.140000X-0.170000X0.140000X-0.170000X0.140000X0.170000X-0.140000X0.170000X0*%
%TD*%
%TA.AperFunction,SMDPad,CuDef*%
%ADD18RoundRect,0.087500X-0.125000X-0.087500X0.125000X-0.087500X0.125000X0.087500X-0.125000X0.087500X0*%
%TD*%
%TA.AperFunction,SMDPad,CuDef*%
%ADD19RoundRect,0.087500X-0.087500X-0.125000X0.087500X-0.125000X0.087500X0.125000X-0.087500X0.125000X0*%
%TD*%
%TA.AperFunction,ComponentPad*%
%ADD20RoundRect,0.250000X-0.350000X-0.625000X0.350000X-0.625000X0.350000X0.625000X-0.350000X0.625000X0*%
%TD*%
%TA.AperFunction,ComponentPad*%
%ADD21O,1.200000X1.750000*%
%TD*%
%TA.AperFunction,SMDPad,CuDef*%
%ADD22RoundRect,0.050010X-0.099990X-0.199990X0.099990X-0.199990X0.099990X0.199990X-0.099990X0.199990X0*%
%TD*%
%TA.AperFunction,SMDPad,CuDef*%
%ADD23RoundRect,0.225000X0.250000X-0.225000X0.250000X0.225000X-0.250000X0.225000X-0.250000X-0.225000X0*%
%TD*%
%TA.AperFunction,ViaPad*%
%ADD24C,0.600000*%
%TD*%
%TA.AperFunction,Conductor*%
%ADD25C,0.200000*%
%TD*%
%TA.AperFunction,Conductor*%
%ADD26C,0.250000*%
%TD*%
%TA.AperFunction,Conductor*%
%ADD27C,0.400000*%
%TD*%
%TA.AperFunction,Conductor*%
%ADD28C,0.300000*%
%TD*%
G04 APERTURE END LIST*
D10*
%TO.P,U1,1*%
%TO.N,SDA*%
X100700000Y-64400000D03*
%TO.P,U1,2*%
%TO.N,SCL*%
X100700000Y-63600000D03*
%TO.P,U1,3*%
%TO.N,3V3*%
X99300000Y-63600000D03*
%TO.P,U1,4*%
%TO.N,GND*%
X99300000Y-64400000D03*
%TD*%
D11*
%TO.P,D1,1*%
%TO.N,unconnected-(D1-NC-Pad1)*%
X101887500Y-90000000D03*
%TO.P,D1,2*%
%TO.N,unconnected-(D1-NC-Pad2)*%
X101887500Y-90500000D03*
%TO.P,D1,3*%
%TO.N,SDA*%
X101887500Y-91000000D03*
%TO.P,D1,4*%
%TO.N,GND*%
X103312500Y-91000000D03*
%TO.P,D1,5*%
%TO.N,SCL*%
X103312500Y-90000000D03*
%TD*%
D12*
%TO.P,R1,1*%
%TO.N,3V3*%
X100600000Y-84010000D03*
%TO.P,R1,2*%
%TO.N,SDA*%
X100600000Y-82990000D03*
%TD*%
D13*
%TO.P,C4,1*%
%TO.N,3V3*%
X106000000Y-81280000D03*
%TO.P,C4,2*%
%TO.N,GND*%
X106000000Y-80320000D03*
%TD*%
D12*
%TO.P,R3,1*%
%TO.N,3V3_IN*%
X99000000Y-91110000D03*
%TO.P,R3,2*%
%TO.N,3V3*%
X99000000Y-90090000D03*
%TD*%
D14*
%TO.P,U3,1*%
%TO.N,3V3*%
X102500000Y-80150000D03*
%TO.P,U3,2*%
X102500000Y-80800000D03*
%TO.P,U3,3*%
%TO.N,GND*%
X102500000Y-81450000D03*
%TO.P,U3,4*%
%TO.N,SCL*%
X103900000Y-81450000D03*
%TO.P,U3,5*%
%TO.N,unconnected-(U3-INT-Pad5)*%
X103900000Y-80800000D03*
%TO.P,U3,6*%
%TO.N,SDA*%
X103900000Y-80150000D03*
D15*
%TO.P,U3,7*%
%TO.N,GND*%
X103200000Y-80800000D03*
%TD*%
D16*
%TO.P,TP2,1*%
%TO.N,GND*%
X98500000Y-77700000D03*
%TD*%
D13*
%TO.P,C3,1*%
%TO.N,3V3*%
X93000000Y-81280000D03*
%TO.P,C3,2*%
%TO.N,GND*%
X93000000Y-80320000D03*
%TD*%
D17*
%TO.P,C2,1*%
%TO.N,3V3*%
X96920000Y-65400000D03*
%TO.P,C2,2*%
%TO.N,GND*%
X97880000Y-65400000D03*
%TD*%
D18*
%TO.P,U2,1*%
%TO.N,3V3*%
X94637500Y-80550000D03*
%TO.P,U2,2*%
%TO.N,SCL*%
X94637500Y-81050000D03*
D19*
%TO.P,U2,3*%
%TO.N,GND*%
X94900000Y-81562500D03*
%TO.P,U2,4*%
%TO.N,SDA*%
X95400000Y-81562500D03*
%TO.P,U2,5*%
%TO.N,GND*%
X95900000Y-81562500D03*
D18*
%TO.P,U2,6*%
%TO.N,3V3*%
X96162500Y-81050000D03*
%TO.P,U2,7*%
%TO.N,unconnected-(U2-INT_DRDY-Pad7)*%
X96162500Y-80550000D03*
D19*
%TO.P,U2,8*%
%TO.N,GND*%
X95900000Y-80037500D03*
%TO.P,U2,9*%
X95400000Y-80037500D03*
%TO.P,U2,10*%
%TO.N,3V3*%
X94900000Y-80037500D03*
%TD*%
D20*
%TO.P,J1,1*%
%TO.N,GND*%
X97000000Y-93500000D03*
D21*
%TO.P,J1,2*%
%TO.N,3V3_IN*%
X99000000Y-93500000D03*
%TO.P,J1,3*%
%TO.N,SDA*%
X101000000Y-93500000D03*
%TO.P,J1,4*%
%TO.N,SCL*%
X103000000Y-93500000D03*
%TD*%
D12*
%TO.P,R2,1*%
%TO.N,3V3*%
X102000000Y-84010000D03*
%TO.P,R2,2*%
%TO.N,SCL*%
X102000000Y-82990000D03*
%TD*%
D16*
%TO.P,TP1,1*%
%TO.N,3V3*%
X95500000Y-77700000D03*
%TD*%
%TO.P,TP3,1*%
%TO.N,SDA*%
X101500000Y-77700000D03*
%TD*%
D22*
%TO.P,D2,1*%
%TO.N,GND*%
X96250000Y-89000000D03*
%TO.P,D2,2*%
%TO.N,3V3_IN*%
X96950000Y-89000000D03*
%TD*%
D23*
%TO.P,C1,1*%
%TO.N,3V3*%
X99000000Y-88375000D03*
%TO.P,C1,2*%
%TO.N,GND*%
X99000000Y-86825000D03*
%TD*%
D16*
%TO.P,TP4,1*%
%TO.N,SCL*%
X104500000Y-77700000D03*
%TD*%
D24*
%TO.N,3V3*%
X101200000Y-79600000D03*
X105000000Y-81300000D03*
X100000000Y-79600000D03*
%TO.N,GND*%
X103200000Y-79000000D03*
X106000000Y-79100000D03*
X98500000Y-78800000D03*
X93000000Y-79100000D03*
X95650000Y-79000000D03*
X94100000Y-82500000D03*
X101600000Y-81450000D03*
X96700000Y-82500000D03*
X94800000Y-89000000D03*
X104300000Y-91000000D03*
X100200000Y-86800000D03*
%TO.N,SCL*%
X101200000Y-82200000D03*
X93900000Y-81700000D03*
%TD*%
%TO.N,3V3*%
D25*
X96920000Y-65400000D02*
X96890000Y-63600000D01*
D26*
X101800000Y-80300000D02*
X101800000Y-80400000D01*
X97900000Y-79600000D02*
X100000000Y-79600000D01*
X96200000Y-81000000D02*
X96300000Y-81100000D01*
D25*
X96297876Y-77491858D02*
X98950000Y-76800000D01*
D26*
X102500000Y-80200000D02*
X102500000Y-80150000D01*
X94300000Y-80000000D02*
X94600000Y-80300000D01*
X106000000Y-81300000D02*
X106000000Y-81280000D01*
X97500000Y-78900000D02*
X96300000Y-77700000D01*
X95500000Y-77700000D02*
X94600000Y-78600000D01*
X105000000Y-81300000D02*
X102300000Y-84000000D01*
X99000000Y-88400000D02*
X99000000Y-90100000D01*
X99000000Y-88400000D02*
X99000000Y-88375000D01*
X99000000Y-84000000D02*
X99000000Y-85600000D01*
X94600000Y-80300000D02*
X94600000Y-80600000D01*
X102400000Y-80200000D02*
X102500000Y-80200000D01*
X99000000Y-88100000D02*
X99000000Y-88400000D01*
X102300000Y-84000000D02*
X102000000Y-84000000D01*
X99000000Y-85600000D02*
X98200000Y-86400000D01*
X98200000Y-87300000D02*
X99000000Y-88100000D01*
X93000000Y-82300000D02*
X94700000Y-84000000D01*
X101200000Y-79600000D02*
X101400000Y-79800000D01*
X94600000Y-80300000D02*
X94900000Y-80000000D01*
X102000000Y-80600000D02*
X102200000Y-80800000D01*
X94900000Y-80000000D02*
X94900000Y-80037500D01*
D25*
X98950000Y-67430000D02*
X96920000Y-65400000D01*
D26*
X101400000Y-79900000D02*
X101800000Y-80300000D01*
D25*
X96890000Y-63600000D02*
X99300000Y-63600000D01*
D26*
X101800000Y-80400000D02*
X102000000Y-80600000D01*
X94600000Y-80600000D02*
X94637500Y-80550000D01*
X98200000Y-86400000D02*
X98200000Y-87300000D01*
X97500000Y-80000000D02*
X97500000Y-78900000D01*
X97500000Y-80000000D02*
X97900000Y-79600000D01*
X93000000Y-81300000D02*
X93000000Y-82300000D01*
X102000000Y-80600000D02*
X102400000Y-80200000D01*
X94300000Y-79800000D02*
X94300000Y-80000000D01*
X99000000Y-84000000D02*
X100600000Y-84000000D01*
D25*
X98950000Y-76800000D02*
X98950000Y-67430000D01*
D26*
X96400000Y-81100000D02*
X97500000Y-80000000D01*
X96300000Y-81100000D02*
X96400000Y-81100000D01*
X96300000Y-77700000D02*
X96297876Y-77491858D01*
X101400000Y-79800000D02*
X101400000Y-79900000D01*
D25*
X95500000Y-77700000D02*
X96297876Y-77491858D01*
D26*
X105000000Y-81300000D02*
X106000000Y-81300000D01*
X93000000Y-81300000D02*
X93000000Y-81280000D01*
X94700000Y-84000000D02*
X99000000Y-84000000D01*
X96162500Y-81050000D02*
X96200000Y-81000000D01*
X94300000Y-80000000D02*
X93000000Y-81300000D01*
X94600000Y-79500000D02*
X94300000Y-79800000D01*
X102200000Y-80800000D02*
X102500000Y-80800000D01*
X94600000Y-78600000D02*
X94600000Y-79500000D01*
%TO.N,GND*%
D25*
X98400000Y-64400000D02*
X99300000Y-64400000D01*
X98400000Y-65400000D02*
X98400000Y-64400000D01*
X98400000Y-65400000D02*
X97880000Y-65400000D01*
D26*
X95400000Y-80037500D02*
X95650000Y-79000000D01*
D27*
X93000000Y-80320000D02*
X93000000Y-79100000D01*
D26*
X95900000Y-80037500D02*
X95650000Y-79000000D01*
D25*
X99650000Y-65400000D02*
X98400000Y-65400000D01*
X98500000Y-77700000D02*
X99650000Y-76800000D01*
D27*
X99000000Y-86825000D02*
X100200000Y-86800000D01*
X96250000Y-89000000D02*
X94800000Y-89000000D01*
D26*
X102500000Y-81450000D02*
X101600000Y-81450000D01*
D27*
X103312500Y-91000000D02*
X104300000Y-91000000D01*
X98500000Y-77700000D02*
X98500000Y-78800000D01*
D28*
X103200000Y-80800000D02*
X103200000Y-79000000D01*
D25*
X99650000Y-76800000D02*
X99650000Y-66800000D01*
D26*
X94900000Y-81562500D02*
X94100000Y-82500000D01*
D27*
X106000000Y-80320000D02*
X106000000Y-79100000D01*
D25*
X99650000Y-66800000D02*
X99650000Y-65400000D01*
D26*
X95900000Y-81562500D02*
X96700000Y-82500000D01*
%TO.N,3V3_IN*%
X97000000Y-89000000D02*
X98400000Y-90400000D01*
X98400000Y-90500000D02*
X99000000Y-91100000D01*
X98400000Y-90400000D02*
X98400000Y-90500000D01*
X96950000Y-89000000D02*
X97000000Y-89000000D01*
X99000000Y-91100000D02*
X99000000Y-93500000D01*
%TO.N,SDA*%
X101500000Y-77700000D02*
X102100000Y-78300000D01*
X103900000Y-78900000D02*
X103900000Y-80200000D01*
X100600000Y-83000000D02*
X100600000Y-81600000D01*
X102100000Y-78300000D02*
X103300000Y-78300000D01*
X101500000Y-91000000D02*
X101000000Y-91500000D01*
X101200000Y-90700000D02*
X101500000Y-91000000D01*
X97300000Y-83400000D02*
X96700000Y-83400000D01*
X101200000Y-83600000D02*
X101200000Y-90700000D01*
X103900000Y-80200000D02*
X103900000Y-80150000D01*
X101500000Y-91000000D02*
X101900000Y-91000000D01*
X96700000Y-83400000D02*
X95400000Y-82100000D01*
D25*
X101106331Y-77391911D02*
X100350000Y-76800000D01*
X100350000Y-65850000D02*
X101800000Y-64400000D01*
D26*
X99100000Y-81600000D02*
X97300000Y-83400000D01*
X95400000Y-82100000D02*
X95400000Y-81562500D01*
X100600000Y-77900000D02*
X101106331Y-77391911D01*
X100600000Y-83000000D02*
X101200000Y-83600000D01*
X100600000Y-81600000D02*
X99100000Y-81600000D01*
D25*
X101500000Y-77700000D02*
X101106331Y-77391911D01*
D26*
X100600000Y-81600000D02*
X100600000Y-77900000D01*
X101000000Y-91500000D02*
X101000000Y-93500000D01*
X103300000Y-78300000D02*
X103900000Y-78900000D01*
D25*
X101800000Y-64400000D02*
X100700000Y-64400000D01*
X100350000Y-76800000D02*
X100350000Y-65850000D01*
%TO.N,SCL*%
D26*
X93900000Y-81700000D02*
X94600000Y-81000000D01*
X102600000Y-92100000D02*
X103000000Y-92500000D01*
X103300000Y-85000000D02*
X103300000Y-90000000D01*
X103000000Y-92500000D02*
X103000000Y-93500000D01*
X104500000Y-81000000D02*
X104500000Y-78300000D01*
X102000000Y-82800000D02*
X101200000Y-82200000D01*
X103000000Y-90400000D02*
X102600000Y-90800000D01*
X102600000Y-82400000D02*
X102800000Y-82200000D01*
X103300000Y-81900000D02*
X103500000Y-81900000D01*
X103100000Y-82000000D02*
X103200000Y-82000000D01*
X104500000Y-78300000D02*
X106100000Y-78300000D01*
X102600000Y-90800000D02*
X102600000Y-92100000D01*
X103600000Y-81800000D02*
X103700000Y-81800000D01*
X94600000Y-81000000D02*
X94637500Y-81050000D01*
X106600000Y-81700000D02*
X103300000Y-85000000D01*
D25*
X102600000Y-63600000D02*
X100700000Y-63600000D01*
D26*
X102500000Y-82400000D02*
X102600000Y-82400000D01*
X103200000Y-82000000D02*
X103300000Y-81900000D01*
X102900000Y-82200000D02*
X103100000Y-82000000D01*
D25*
X104500000Y-77700000D02*
X101050000Y-76800000D01*
D26*
X102000000Y-83000000D02*
X102000000Y-82800000D01*
D25*
X101050000Y-76800000D02*
X101050000Y-66800000D01*
D26*
X104500000Y-78300000D02*
X104500000Y-77700000D01*
X102000000Y-82800000D02*
X102200000Y-82600000D01*
X106100000Y-78300000D02*
X106600000Y-78800000D01*
X102800000Y-82200000D02*
X102900000Y-82200000D01*
X103700000Y-81800000D02*
X104500000Y-81000000D01*
X102300000Y-82600000D02*
X102500000Y-82400000D01*
X106600000Y-78800000D02*
X106600000Y-81700000D01*
D25*
X102600000Y-63600000D02*
X102600000Y-65250000D01*
X102600000Y-65250000D02*
X101050000Y-66800000D01*
D26*
X103500000Y-81900000D02*
X103600000Y-81800000D01*
X103000000Y-90300000D02*
X103000000Y-90400000D01*
X103300000Y-90000000D02*
X103000000Y-90300000D01*
X102200000Y-82600000D02*
X102300000Y-82600000D01*
%TD*%
M02*
