M48
; DRILL file KiCad 10.0.5-10.0.5~ubuntu24.04.1
; FORMAT={-:-/ absolute / metric / decimal}
; #@! TF.GenerationSoftware,Kicad,Pcbnew,10.0.5-10.0.5~ubuntu24.04.1
; #@! TF.FileFunction,Plated,1,2,PTH
FMAT,2
METRIC
; #@! TA.AperFunction,Plated,PTH,ViaDrill
T1C0.300
; #@! TA.AperFunction,Plated,PTH,ComponentDrill
T2C0.750
%
G90
G05
T1
X93.0Y-79.1
X94.1Y-82.5
X94.8Y-89.0
X95.65Y-79.0
X95.75Y-82.35
X96.7Y-82.5
X98.5Y-78.8
X99.0Y-76.5
X99.025Y-79.45
X99.275Y-83.3
X100.2Y-86.8
X101.3Y-78.8
X101.6Y-81.45
X102.7Y-76.6
X103.1Y-83.3
X103.1Y-84.7
X103.2Y-79.0
X104.3Y-91.0
X106.0Y-79.1
T2
X97.0Y-93.5
X99.0Y-93.5
X101.0Y-93.5
X103.0Y-93.5
M30
