%TF.GenerationSoftware,KiCad,Pcbnew,10.0.5-10.0.5~ubuntu24.04.1*%
%TF.CreationDate,2026-09-02T10:38:10-06:00*%
%TF.ProjectId,i2c_env_sensor,6932635f-656e-4765-9f73-656e736f722e,rev?*%
%TF.SameCoordinates,Original*%
%TF.FileFunction,Soldermask,Top*%
%TF.FilePolarity,Negative*%
%FSLAX46Y46*%
G04 Gerber Fmt 4.6, Leading zero omitted, Abs format (unit mm)*
G04 Created by KiCad (PCBNEW 10.0.5-10.0.5~ubuntu24.04.1) date 2026-09-02 10:38:10*
%MOMM*%
%LPD*%
G01*
G04 APERTURE LIST*
G04 Aperture macros list*
%AMRoundRect*
0 Rectangle with rounded corners*
0 $1 Rounding radius*
0 $2 $3 $4 $5 $6 $7 $8 $9 X,Y pos of 4 corners*
0 Add a 4 corners polygon primitive as box body*
4,1,4,$2,$3,$4,$5,$6,$7,$8,$9,$2,$3,0*
0 Add four circle primitives for the rounded corners*
1,1,$1+$1,$2,$3*
1,1,$1+$1,$4,$5*
1,1,$1+$1,$6,$7*
1,1,$1+$1,$8,$9*
0 Add four rect primitives between the rounded corners*
20,1,$1+$1,$2,$3,$4,$5,0*
20,1,$1+$1,$4,$5,$6,$7,0*
20,1,$1+$1,$6,$7,$8,$9,0*
20,1,$1+$1,$8,$9,$2,$3,0*%
G04 Aperture macros list end*
%ADD10C,2.200000*%
%ADD11R,0.500000X0.300000*%
%ADD12RoundRect,0.087500X-0.250000X-0.087500X0.250000X-0.087500X0.250000X0.087500X-0.250000X0.087500X0*%
%ADD13RoundRect,0.135000X0.185000X-0.135000X0.185000X0.135000X-0.185000X0.135000X-0.185000X-0.135000X0*%
%ADD14RoundRect,0.140000X0.170000X-0.140000X0.170000X0.140000X-0.170000X0.140000X-0.170000X-0.140000X0*%
%ADD15R,0.500000X0.250000*%
%ADD16R,0.650000X1.350000*%
%ADD17C,1.000000*%
%ADD18RoundRect,0.140000X-0.140000X-0.170000X0.140000X-0.170000X0.140000X0.170000X-0.140000X0.170000X0*%
%ADD19RoundRect,0.087500X-0.125000X-0.087500X0.125000X-0.087500X0.125000X0.087500X-0.125000X0.087500X0*%
%ADD20RoundRect,0.087500X-0.087500X-0.125000X0.087500X-0.125000X0.087500X0.125000X-0.087500X0.125000X0*%
%ADD21RoundRect,0.250000X-0.350000X-0.625000X0.350000X-0.625000X0.350000X0.625000X-0.350000X0.625000X0*%
%ADD22O,1.200000X1.750000*%
%ADD23RoundRect,0.050010X-0.099990X-0.199990X0.099990X-0.199990X0.099990X0.199990X-0.099990X0.199990X0*%
%ADD24RoundRect,0.225000X0.250000X-0.225000X0.250000X0.225000X-0.250000X0.225000X-0.250000X-0.225000X0*%
G04 APERTURE END LIST*
D10*
%TO.C,H1*%
X93000000Y-87500000D03*
%TD*%
D11*
%TO.C,U1*%
X100700000Y-64400000D03*
X100700000Y-63600000D03*
X99300000Y-63600000D03*
X99300000Y-64400000D03*
%TD*%
D12*
%TO.C,D1*%
X101887500Y-90000000D03*
X101887500Y-90500000D03*
X101887500Y-91000000D03*
X103312500Y-91000000D03*
X103312500Y-90000000D03*
%TD*%
D13*
%TO.C,R1*%
X100600000Y-84010000D03*
X100600000Y-82990000D03*
%TD*%
D14*
%TO.C,C4*%
X106000000Y-81280000D03*
X106000000Y-80320000D03*
%TD*%
D13*
%TO.C,R3*%
X99000000Y-91110000D03*
X99000000Y-90090000D03*
%TD*%
D15*
%TO.C,U3*%
X102500000Y-80150000D03*
X102500000Y-80800000D03*
X102500000Y-81450000D03*
X103900000Y-81450000D03*
X103900000Y-80800000D03*
X103900000Y-80150000D03*
D16*
X103200000Y-80800000D03*
%TD*%
D17*
%TO.C,TP2*%
X98500000Y-77700000D03*
%TD*%
D14*
%TO.C,C3*%
X93000000Y-81280000D03*
X93000000Y-80320000D03*
%TD*%
D10*
%TO.C,H2*%
X107000000Y-87500000D03*
%TD*%
D18*
%TO.C,C2*%
X96920000Y-65400000D03*
X97880000Y-65400000D03*
%TD*%
D19*
%TO.C,U2*%
X94637500Y-80550000D03*
X94637500Y-81050000D03*
D20*
X94900000Y-81562500D03*
X95400000Y-81562500D03*
X95900000Y-81562500D03*
D19*
X96162500Y-81050000D03*
X96162500Y-80550000D03*
D20*
X95900000Y-80037500D03*
X95400000Y-80037500D03*
X94900000Y-80037500D03*
%TD*%
D21*
%TO.C,J1*%
X97000000Y-93500000D03*
D22*
X99000000Y-93500000D03*
X101000000Y-93500000D03*
X103000000Y-93500000D03*
%TD*%
D13*
%TO.C,R2*%
X102000000Y-84010000D03*
X102000000Y-82990000D03*
%TD*%
D17*
%TO.C,TP1*%
X95500000Y-77700000D03*
%TD*%
%TO.C,TP3*%
X101500000Y-77700000D03*
%TD*%
D23*
%TO.C,D2*%
X96250000Y-89000000D03*
X96950000Y-89000000D03*
%TD*%
D24*
%TO.C,C1*%
X99000000Y-88375000D03*
X99000000Y-86825000D03*
%TD*%
D17*
%TO.C,TP4*%
X104500000Y-77700000D03*
%TD*%
M02*
